<svg width="105" height="28" viewBox="0 0 105 28" fill="none" xmlns="http://www.w3.org/2000/svg">
<path d="M53.5231 27.1269H50.9143C50.8872 22.4257 50.0312 19.2326 48.3463 17.5478C46.6886 15.8901 43.5228 15.0613 38.8487 15.0613H17.4891C14.5271 15.0613 11.959 14.7623 9.78505 14.1645C7.58388 13.5666 5.76316 12.6563 4.32288 11.4334C2.88261 10.2105 1.8092 8.66155 1.10265 6.78648C0.3961 4.93858 0.042826 2.75099 0.042826 0.223723L2.65162 0.223723C2.65162 3.07709 3.16795 5.40055 4.20059 7.1941C5.20607 8.98765 6.80939 10.3056 9.01056 11.1481C11.1846 12.0177 14.0108 12.4525 17.4891 12.4525L38.8487 12.4525C41.539 12.4525 43.8081 12.7106 45.656 13.2269C47.5311 13.7433 49.0393 14.5721 50.1806 15.7134C51.3491 16.8548 52.1916 18.363 52.7079 20.2381C53.2514 22.1132 53.5231 24.4094 53.5231 27.1269ZM104.395 0.223723C104.395 2.75099 104.041 4.93858 103.335 6.78648C102.628 8.66155 101.555 10.2105 100.115 11.4334C98.6743 12.6563 96.8536 13.5666 94.6524 14.1645C92.4784 14.7623 89.9104 15.0613 86.9483 15.0613H65.5888C60.9147 15.0613 57.7353 15.8901 56.0504 17.5478C54.3927 19.2326 53.5503 22.4257 53.5231 27.1269H50.9143C50.9415 24.4094 51.2133 22.1132 51.7296 20.2381C52.2731 18.363 53.1155 16.8548 54.2569 15.7134C55.3982 14.5721 56.8928 13.7433 58.7407 13.2269C60.6158 12.7106 62.8985 12.4525 65.5888 12.4525L86.9483 12.4525C90.4267 12.4525 93.2529 12.0177 95.4269 11.1481C97.6281 10.3056 99.245 8.98765 100.278 7.1941C101.31 5.40055 101.813 3.07709 101.786 0.223723L104.395 0.223723ZM53.5231 27.1269H50.9143V18.3222H53.5231V27.1269Z" fill="#F4CA76"/>
</svg>
