<svg width="215" height="56" viewBox="0 0 215 56" fill="none" xmlns="http://www.w3.org/2000/svg">
<path d="M110.021 55.9447H104.662C104.606 46.288 102.848 39.7293 99.387 36.2685C95.9821 32.8636 89.4792 31.1611 79.8783 31.1611L36.0047 31.1611C29.9205 31.1611 24.6456 30.5471 20.1801 29.3191C15.6588 28.0911 11.9189 26.2212 8.96052 23.7093C6.00212 21.1975 3.79727 18.0158 2.34598 14.1643C0.894694 10.3686 0.169049 5.87519 0.169049 0.684043L5.52766 0.684043C5.52766 6.54502 6.58822 11.3175 8.70933 15.0016C10.7746 18.6856 14.0679 21.3928 18.5893 23.1232C23.0548 24.9094 28.8599 25.8025 36.0047 25.8025L79.8783 25.8025C85.4044 25.8025 90.0653 26.3328 93.861 27.3934C97.7125 28.4539 100.81 30.1564 103.155 32.5008C105.555 34.8452 107.285 37.9431 108.346 41.7946C109.462 45.6461 110.021 50.3628 110.021 55.9447ZM214.513 0.684043C214.513 5.87519 213.788 10.3686 212.336 14.1643C210.885 18.0158 208.68 21.1975 205.722 23.7093C202.763 26.2212 199.024 28.0911 194.502 29.3191C190.037 30.5471 184.762 31.1611 178.678 31.1611H134.804C125.203 31.1611 118.672 32.8636 115.212 36.2685C111.807 39.7293 110.076 46.288 110.021 55.9447H104.662C104.718 50.3628 105.276 45.6461 106.336 41.7946C107.453 37.9431 109.183 34.8452 111.528 32.5008C113.872 30.1564 116.942 28.4539 120.738 27.3934C124.589 26.3328 129.278 25.8025 134.804 25.8025L178.678 25.8025C185.822 25.8025 191.628 24.9094 196.093 23.1232C200.614 21.3928 203.936 18.6856 206.057 15.0016C208.178 11.3175 209.211 6.54502 209.155 0.684043L214.513 0.684043ZM110.021 55.9447H104.662V37.8594H110.021V55.9447Z" fill="#F4CA76"/>
</svg>
