<svg width="854" height="280" viewBox="0 0 854 314" fill="none" xmlns="http://www.w3.org/2000/svg">
<text transform="translate(20 40)" style="font-size: 22px;fill: #000000;font-weight: 700;font-family: Futura, Arial, Helvetica, sans-serif">Личное предназначение:</text>
<text transform="translate(20 155)" style="font-size: 22px;fill: #000000;font-weight: 700;font-family: Futura, Arial, Helvetica, sans-serif">Родовое предназначение:</text>
<text transform="translate(430 140)" style="font-size: 22px;fill: #000000;font-weight: 700;font-family: Futura, Arial, Helvetica, sans-serif">Духовное предназначение:</text>
<text transform="translate(470 180)" style="font-size: 22px;fill: #000000;font-weight: 700;font-family: Futura, Arial, Helvetica, sans-serif">Высшее духовное:</text>
<text transform="translate(55 80)" style="font-size: 18px;fill: #F4CA76;font-weight: 400;font-family: Futura, Arial, Helvetica, sans-serif">НЕБО:</text>
<text transform="translate(40 110)" style="font-size: 18px;fill: #F4CA76;font-weight: 400;font-family: Futura, Arial, Helvetica, sans-serif">ЗЕМЛЯ:</text>
<text transform="translate(50 195)" style="font-size: 18px;fill: #F4CA76;font-weight: 400;font-family: Futura, Arial, Helvetica, sans-serif">ОТЕЦ:</text>
<text transform="translate(50 225)" style="font-size: 18px;fill: #F4CA76;font-weight: 400;font-family: Futura, Arial, Helvetica, sans-serif">МАТЬ:</text>
<g transform="translate(20 -10)">
<path d="M198.097 100.54V102.079C195.324 102.095 193.44 102.6 192.446 103.594C191.468 104.572 190.979 106.44 190.979 109.197V121.798C190.979 123.545 190.803 125.06 190.45 126.343C190.097 127.641 189.56 128.715 188.839 129.565C188.118 130.415 187.204 131.048 186.098 131.465C185.007 131.882 183.717 132.09 182.226 132.09V130.551C183.909 130.551 185.28 130.246 186.338 129.637C187.396 129.044 188.174 128.098 188.671 126.8C189.184 125.517 189.44 123.85 189.44 121.798V109.197C189.44 107.61 189.592 106.272 189.897 105.181C190.202 104.075 190.691 103.186 191.364 102.512C192.037 101.823 192.927 101.326 194.033 101.021C195.139 100.701 196.494 100.54 198.097 100.54ZM182.226 70.5299C183.717 70.5299 185.007 70.7383 186.098 71.1551C187.204 71.5719 188.118 72.2051 188.839 73.0548C189.56 73.9044 190.097 74.9785 190.45 76.2771C190.803 77.5596 190.979 79.0745 190.979 80.8219V93.4225C190.979 96.1799 191.468 98.0556 192.446 99.0495C193.44 100.027 195.324 100.524 198.097 100.54V102.079C196.494 102.063 195.139 101.903 194.033 101.598C192.927 101.278 192.037 100.781 191.364 100.108C190.691 99.4342 190.202 98.5525 189.897 97.4624C189.592 96.3562 189.44 95.0096 189.44 93.4225V80.8219C189.44 78.7699 189.184 77.1027 188.671 75.8202C188.174 74.5216 187.396 73.5678 186.338 72.9586C185.28 72.3494 183.909 72.0528 182.226 72.0689V70.5299ZM198.097 100.54V102.079H192.903V100.54H198.097Z" fill="#F4CA76"/>
</g>
<g transform="translate(20 -30)">
<path d="M198.097 233.617V235.156C195.324 235.172 193.44 235.677 192.446 236.671C191.468 237.649 190.979 239.517 190.979 242.274V254.875C190.979 256.622 190.803 258.137 190.45 259.419C190.097 260.718 189.56 261.792 188.839 262.642C188.118 263.491 187.204 264.125 186.098 264.541C185.007 264.958 183.717 265.167 182.226 265.167V263.628C183.909 263.628 185.28 263.323 186.338 262.714C187.396 262.121 188.174 261.175 188.671 259.876C189.184 258.594 189.44 256.927 189.44 254.875V242.274C189.44 240.687 189.592 239.348 189.897 238.258C190.202 237.152 190.691 236.262 191.364 235.589C192.037 234.9 192.927 234.403 194.033 234.098C195.139 233.777 196.494 233.617 198.097 233.617ZM182.226 203.607C183.717 203.607 185.007 203.815 186.098 204.232C187.204 204.649 188.118 205.282 188.839 206.131C189.56 206.981 190.097 208.055 190.45 209.354C190.803 210.636 190.979 212.151 190.979 213.899V226.499C190.979 229.257 191.468 231.132 192.446 232.126C193.44 233.104 195.324 233.601 198.097 233.617V235.156C196.494 235.14 195.139 234.98 194.033 234.675C192.927 234.354 192.037 233.858 191.364 233.184C190.691 232.511 190.202 231.629 189.897 230.539C189.592 229.433 189.44 228.086 189.44 226.499V213.899C189.44 211.847 189.184 210.179 188.671 208.897C188.174 207.598 187.396 206.644 186.338 206.035C185.28 205.426 183.909 205.129 182.226 205.146V203.607ZM198.097 233.617V235.156H192.903V233.617H198.097Z" fill="#F4CA76"/>
</g>
<g transform="translate(-30 -20)">
<path d="M417.975 164.601V168.036C411.786 168.071 407.582 169.198 405.364 171.416C403.181 173.599 402.09 177.767 402.09 183.921V212.042C402.09 215.941 401.696 219.322 400.909 222.184C400.122 225.082 398.924 227.479 397.314 229.376C395.704 231.272 393.664 232.685 391.196 233.615C388.763 234.545 385.883 235.011 382.556 235.011V231.576C386.312 231.576 389.371 230.896 391.733 229.537C394.094 228.213 395.829 226.102 396.938 223.204C398.083 220.342 398.655 216.621 398.655 212.042V183.921C398.655 180.379 398.995 177.391 399.675 174.958C400.355 172.49 401.446 170.504 402.949 169.002C404.451 167.463 406.437 166.354 408.906 165.674C411.374 164.959 414.397 164.601 417.975 164.601ZM382.556 97.6259C385.883 97.6259 388.763 98.091 391.196 99.0212C393.664 99.9514 395.704 101.365 397.314 103.261C398.924 105.157 400.122 107.554 400.909 110.452C401.696 113.314 402.09 116.695 402.09 120.595V148.716C402.09 154.87 403.181 159.055 405.364 161.274C407.582 163.456 411.786 164.565 417.975 164.601V168.036C414.397 168 411.374 167.642 408.906 166.962C406.437 166.247 404.451 165.138 402.949 163.635C401.446 162.132 400.355 160.165 399.675 157.732C398.995 155.263 398.655 152.258 398.655 148.716V120.595C398.655 116.015 398.083 112.295 396.938 109.432C395.829 106.534 394.094 104.406 391.733 103.046C389.371 101.687 386.312 101.025 382.556 101.061V97.6259ZM417.975 164.601V168.036H406.383V164.601H417.975Z" fill="#F4CA76"/>
</g>
<g filter="url(#filter0_d_105_146)" transform="translate(0 -10)">
<circle cx="151.726" cy="84.3504" r="12.9544" fill="#F4CA76" fill-opacity="0.5" shape-rendering="crispEdges"/>
<text transform="translate(151.726 90) scale(0.99 1)" text-anchor="middle" style="font-size: 16px;fill: #000000;font-family: ArialMT, Arial">${purposePersonalSky.innerHTML}</text>
</g>
<g filter="url(#filter1_d_105_146)" transform="translate(40 -10)">
<circle cx="227.097" cy="100.838" r="18.8427" fill="#F4CA76" fill-opacity="0.5" shape-rendering="crispEdges"/>
<text transform="translate(227.097 107) scale(0.99 1)" text-anchor="middle" style="font-size: 16px;fill: #000000;font-family: ArialMT, Arial">${purposePersonalAny.innerHTML}</text>
</g>
<g filter="url(#filter1_d_105_146)" transform="translate(40 100)">
<circle cx="227.097" cy="100.838" r="18.8427" fill="#F4CA76" fill-opacity="0.5" shape-rendering="crispEdges"/>
<text transform="translate(227.097 107) scale(0.99 1)" text-anchor="middle" style="font-size: 16px;fill: #000000;font-family: ArialMT, Arial">${purposeGenericAny.innerHTML}</text>
</g>
<g filter="url(#filter3_d_105_146)" transform="translate(20 -30)">
<circle cx="755.872" cy="165.61" r="24.7311" fill="#F4CA76" fill-opacity="0.5" shape-rendering="crispEdges"/>
<text transform="translate(755.872 169) scale(0.99 1)" text-anchor="middle" style="font-size: 16px;fill: #000000;font-family: ArialMT, Arial">${purposeSpiritualUsual.innerHTML}</text>
</g>
<g filter="url(#filter4_d_105_146)" transform="translate(30 -55)">
<circle cx="687.567" cy="231.559" r="24.7311" fill="#F4CA76" fill-opacity="0.5" shape-rendering="crispEdges"/>
<text transform="translate(687.567 235) scale(0.99 1)" text-anchor="middle" style="font-size: 16px;fill: #000000;font-family: ArialMT, Arial">${purposeSpiritualHigher.innerHTML}</text>
</g>
<g filter="url(#filter5_d_105_146)" transform="translate(0 -30)">
<circle cx="151.726" cy="217.427" r="12.9544" fill="#F4CA76" fill-opacity="0.5" shape-rendering="crispEdges"/>
<text transform="translate(151.726 223) scale(0.99 1)" text-anchor="middle" style="font-size: 16px;fill: #000000;font-family: ArialMT, Arial">${purposeGenericFather.innerHTML}</text>
</g>
<g filter="url(#filter6_d_105_146)" transform="translate(0 -15)">
<circle cx="151.726" cy="117.325" r="12.9544" fill="#F4CA76" fill-opacity="0.5" shape-rendering="crispEdges"/>
<text transform="translate(151.726 123) scale(0.99 1)" text-anchor="middle" style="font-size: 16px;fill: #000000;font-family: ArialMT, Arial">${purposePersonalEarth.innerHTML}</text>
</g>
<g filter="url(#filter7_d_105_146)" transform="translate(0 -35)">
<circle cx="151.726" cy="250.402" r="12.9544" fill="#F4CA76" fill-opacity="0.5" shape-rendering="crispEdges"/>
<text transform="translate(151.726 256) scale(0.99 1)" text-anchor="middle" style="font-size: 16px;fill: #000000;font-family: ArialMT, Arial">${purposeGenericMother.innerHTML}</text>
</g>
<defs>
<filter id="filter0_d_105_146" x="132.884" y="65.5076" width="37.6854" height="37.6855" filterUnits="userSpaceOnUse" color-interpolation-filters="sRGB">
<feFlood flood-opacity="0" result="BackgroundImageFix"/>
<feColorMatrix in="SourceAlpha" type="matrix" values="0 0 0 0 0 0 0 0 0 0 0 0 0 0 0 0 0 0 127 0" result="hardAlpha"/>
<feOffset/>
<feGaussianBlur stdDeviation="2.94418"/>
<feComposite in2="hardAlpha" operator="out"/>
<feColorMatrix type="matrix" values="0 0 0 0 1 0 0 0 0 1 0 0 0 0 1 0 0 0 0.88 0"/>
<feBlend mode="normal" in2="BackgroundImageFix" result="effect1_dropShadow_105_146"/>
<feBlend mode="normal" in="SourceGraphic" in2="effect1_dropShadow_105_146" result="shape"/>
</filter>
<filter id="filter1_d_105_146" x="202.366" y="76.1068" width="49.4623" height="49.4621" filterUnits="userSpaceOnUse" color-interpolation-filters="sRGB">
<feFlood flood-opacity="0" result="BackgroundImageFix"/>
<feColorMatrix in="SourceAlpha" type="matrix" values="0 0 0 0 0 0 0 0 0 0 0 0 0 0 0 0 0 0 127 0" result="hardAlpha"/>
<feOffset/>
<feGaussianBlur stdDeviation="2.94418"/>
<feComposite in2="hardAlpha" operator="out"/>
<feColorMatrix type="matrix" values="0 0 0 0 1 0 0 0 0 1 0 0 0 0 1 0 0 0 0.88 0"/>
<feBlend mode="normal" in2="BackgroundImageFix" result="effect1_dropShadow_105_146"/>
<feBlend mode="normal" in="SourceGraphic" in2="effect1_dropShadow_105_146" result="shape"/>
</filter>
<filter id="filter2_d_105_146" x="204.722" y="209.183" width="49.4623" height="49.4621" filterUnits="userSpaceOnUse" color-interpolation-filters="sRGB">
<feFlood flood-opacity="0" result="BackgroundImageFix"/>
<feColorMatrix in="SourceAlpha" type="matrix" values="0 0 0 0 0 0 0 0 0 0 0 0 0 0 0 0 0 0 127 0" result="hardAlpha"/>
<feOffset/>
<feGaussianBlur stdDeviation="2.94418"/>
<feComposite in2="hardAlpha" operator="out"/>
<feColorMatrix type="matrix" values="0 0 0 0 1 0 0 0 0 1 0 0 0 0 1 0 0 0 0.88 0"/>
<feBlend mode="normal" in2="BackgroundImageFix" result="effect1_dropShadow_105_146"/>
<feBlend mode="normal" in="SourceGraphic" in2="effect1_dropShadow_105_146" result="shape"/>
</filter>
<filter id="filter3_d_105_146" x="725.252" y="134.99" width="61.2389" height="61.2389" filterUnits="userSpaceOnUse" color-interpolation-filters="sRGB">
<feFlood flood-opacity="0" result="BackgroundImageFix"/>
<feColorMatrix in="SourceAlpha" type="matrix" values="0 0 0 0 0 0 0 0 0 0 0 0 0 0 0 0 0 0 127 0" result="hardAlpha"/>
<feOffset/>
<feGaussianBlur stdDeviation="2.94418"/>
<feComposite in2="hardAlpha" operator="out"/>
<feColorMatrix type="matrix" values="0 0 0 0 1 0 0 0 0 1 0 0 0 0 1 0 0 0 0.88 0"/>
<feBlend mode="normal" in2="BackgroundImageFix" result="effect1_dropShadow_105_146"/>
<feBlend mode="normal" in="SourceGraphic" in2="effect1_dropShadow_105_146" result="shape"/>
</filter>
<filter id="filter4_d_105_146" x="656.947" y="200.94" width="61.2389" height="61.2389" filterUnits="userSpaceOnUse" color-interpolation-filters="sRGB">
<feFlood flood-opacity="0" result="BackgroundImageFix"/>
<feColorMatrix in="SourceAlpha" type="matrix" values="0 0 0 0 0 0 0 0 0 0 0 0 0 0 0 0 0 0 127 0" result="hardAlpha"/>
<feOffset/>
<feGaussianBlur stdDeviation="2.94418"/>
/n<feComposite in2="hardAlpha" operator="out"/>
/n<feColorMatrix type="matrix" values="0 0 0 0 1 0 0 0 0 1 0 0 0 0 1 0 0 0 0.88 0"/>
/n<feBlend mode="normal" in2="BackgroundImageFix" result="effect1_dropShadow_105_146"/>
/n<feBlend mode="normal" in="SourceGraphic" in2="effect1_dropShadow_105_146" result="shape"/>
/n</filter>
/n<filter id="filter5_d_105_146" x="132.884" y="198.584" width="37.6854" height="37.6855" filterUnits="userSpaceOnUse" color-interpolation-filters="sRGB">
/n<feFlood flood-opacity="0" result="BackgroundImageFix"/>
/n<feColorMatrix in="SourceAlpha" type="matrix" values="0 0 0 0 0 0 0 0 0 0 0 0 0 0 0 0 0 0 127 0" result="hardAlpha"/>/n<feOffset/>/n<feGaussianBlur stdDeviation="2.94418"/>/n<feComposite in2="hardAlpha" operator="out"/>/n<feColorMatrix type="matrix" values="0 0 0 0 1 0 0 0 0 1 0 0 0 0 1 0 0 0 0.88 0"/>/n<feBlend mode="normal" in2="BackgroundImageFix" result="effect1_dropShadow_105_146"/>/n<feBlend mode="normal" in="SourceGraphic" in2="effect1_dropShadow_105_146" result="shape"/>/n</filter>/n<filter id="filter6_d_105_146" x="132.884" y="98.4823" width="37.6854" height="37.6855" filterUnits="userSpaceOnUse" color-interpolation-filters="sRGB">/n<feFlood flood-opacity="0" result="BackgroundImageFix"/>/n<feColorMatrix in="SourceAlpha" type="matrix" values="0 0 0 0 0 0 0 0 0 0 0 0 0 0 0 0 0 0 127 0" result="hardAlpha"/>/n<feOffset/>/n<feGaussianBlur stdDeviation="2.94418"/>/n<feComposite in2="hardAlpha" operator="out"/>/n<feColorMatrix type="matrix" values="0 0 0 0 1 0 0 0 0 1 0 0 0 0 1 0 0 0 0.88 0"/>/n<feBlend mode="normal" in2="BackgroundImageFix" result="effect1_dropShadow_105_146"/>/n<feBlend mode="normal" in="SourceGraphic" in2="effect1_dropShadow_105_146" result="shape"/>/n</filter>/n<filter id="filter7_d_105_146" x="132.884" y="231.559" width="37.6854" height="37.6855" filterUnits="userSpaceOnUse" color-interpolation-filters="sRGB">/n<feFlood flood-opacity="0" result="BackgroundImageFix"/>/n<feColorMatrix in="SourceAlpha" type="matrix" values="0 0 0 0 0 0 0 0 0 0 0 0 0 0 0 0 0 0 127 0" result="hardAlpha"/>/n<feOffset/>/n<feGaussianBlur stdDeviation="2.94418"/>/n<feComposite in2="hardAlpha" operator="out"/>/n<feColorMatrix type="matrix" values="0 0 0 0 1 0 0 0 0 1 0 0 0 0 1 0 0 0 0.88 0"/>/n<feBlend mode="normal" in2="BackgroundImageFix" result="effect1_dropShadow_105_146"/>/n<feBlend mode="normal" in="SourceGraphic" in2="effect1_dropShadow_105_146" result="shape"/>/n</filter>/n</defs>/n</svg>
