<svg width="662" height="746" viewBox="0 0 662 746" fill="none" xmlns="http://www.w3.org/2000/svg">
<rect x="138.418" y="0.883728" width="123.655" height="36.5078" fill="lightgrey"/>
<text transform="translate(170 25) scale(0.99 1)" style="font-size: 16px;fill: #201600;font-family: ArialMT, Arial">ЗЕМЛЯ</text>
<rect x="5.34082" y="0.883789" width="122.478" height="36.5078" fill="lightgrey"/>
<text transform="translate(43 25) scale(0.99 1)" style="font-size: 16px;fill: #201600;font-family: ArialMT, Arial">НЕБО</text>
<rect x="271.495" y="0.883728" width="123.655" height="36.5078" fill="lightgrey"/>
<text transform="translate(312 25) scale(0.99 1)" style="font-size: 16px;fill: #201600;font-family: ArialMT, Arial">КЛЮЧ</text>
<rect x="404.571" y="0.883728" width="256.732" height="36.5078" fill="lightgrey"/>
<text transform="translate(500 25) scale(0.99 1)" style="font-size: 16px;fill: #201600;font-family: ArialMT, Arial">ЧАКРА</text>
<rect x="5.34094" y="46.8129" width="122.478" height="78.904" fill="#D084FF"/>
<text transform="translate(65 96) scale(0.99 1)" text-anchor="middle" style="font-size: 20px;fill: #201600;font-family: ArialMT, Arial">${northCircleViolet.innerHTML}</text>
<rect x="5.34094" y="401.292" width="122.478" height="78.904" fill="#FFEB7E"/>
<text transform="translate(65 450) scale(0.99 1)" text-anchor="middle" style="font-size: 20px;fill: #201600;font-family: ArialMT, Arial">${centerCircleYellow.innerHTML}</text>
<rect x="5.34094" y="223.464" width="122.478" height="78.904" fill="#81CBFF"/>
<text transform="translate(65 272) scale(0.99 1)" text-anchor="middle" style="font-size: 20px;fill: #201600;font-family: ArialMT, Arial">${northCircleLightblue.innerHTML}</text>
<rect x="5.34094" y="577.943" width="122.478" height="78.904" fill="#FF6868"/>
<text transform="translate(65 627) scale(0.99 1)" text-anchor="middle" style="font-size: 20px;fill: #201600;font-family: ArialMT, Arial">${southCircleRed.innerHTML}</text>
<rect x="5.34094" y="136.316" width="122.478" height="78.904" fill="#8692FF"/>
<text transform="translate(65 185) scale(0.99 1)" text-anchor="middle" style="font-size: 20px;fill: #201600;font-family: ArialMT, Arial">${northCircleBlue.innerHTML}</text>
<rect x="5.34094" y="489.617" width="122.478" height="78.904" fill="#FFBB37"/>
<text transform="translate(65 539) scale(0.99 1)" text-anchor="middle" style="font-size: 20px;fill: #201600;font-family: ArialMT, Arial">${southCircleOrange.innerHTML}</text>
<rect x="5.34094" y="312.967" width="122.478" height="77.7263" fill="#ADFF98"/>
<text transform="translate(65 362) scale(0.99 1)" text-anchor="middle" style="font-size: 20px;fill: #201600;font-family: ArialMT, Arial">${northCircleGreen.innerHTML}</text>
<rect x="5.34094" y="666.268" width="122.478" height="78.904" fill="#D9D9D9"/>
<text transform="translate(65 715) scale(0.99 1)" text-anchor="middle" style="font-size: 20px;fill: #201600;font-family: ArialMT, Arial">${tableSkySumm.innerHTML}</text>
<rect x="138.418" y="46.8129" width="123.655" height="78.904" fill="#D084FF"/>
<text transform="translate(198 96) scale(0.99 1)" text-anchor="middle" style="font-size: 20px;fill: #201600;font-family: ArialMT, Arial">${westCircleViolet.innerHTML}</text>
<rect x="138.418" y="401.292" width="123.655" height="78.904" fill="#FFEB7E"/>
<text transform="translate(198 450) scale(0.99 1)" text-anchor="middle" style="font-size: 20px;fill: #201600;font-family: ArialMT, Arial">${centerCircleYellow.innerHTML}</text>
<rect x="138.418" y="223.464" width="123.655" height="78.904" fill="#81CBFF"/>
<text transform="translate(198 272) scale(0.99 1)" text-anchor="middle" style="font-size: 20px;fill: #201600;font-family: ArialMT, Arial">${westCircleLightblue.innerHTML}</text>
<rect x="138.418" y="577.943" width="123.655" height="78.904" fill="#FF6868"/>
<text transform="translate(198 627) scale(0.99 1)" text-anchor="middle" style="font-size: 20px;fill: #201600;font-family: ArialMT, Arial">${eastCircleRed.innerHTML}</text>
<rect x="138.418" y="136.316" width="123.655" height="78.904" fill="#8692FF"/>
<text transform="translate(198 185) scale(0.99 1)" text-anchor="middle" style="font-size: 20px;fill: #201600;font-family: ArialMT, Arial">${northCircleBlue.innerHTML}</text>
<rect x="138.418" y="489.617" width="123.655" height="78.904" fill="#FFBB37"/>
<text transform="translate(198 539) scale(0.99 1)" text-anchor="middle" style="font-size: 20px;fill: #201600;font-family: ArialMT, Arial">${eastCircleOrange.innerHTML}</text>
<rect x="138.418" y="312.967" width="123.655" height="77.7263" fill="#ADFF98"/>
<text transform="translate(198 362) scale(0.99 1)" text-anchor="middle" style="font-size: 20px;fill: #201600;font-family: ArialMT, Arial">${westCircleGreen.innerHTML}</text>
<rect x="138.418" y="666.268" width="123.655" height="78.904" fill="#D9D9D9"/>
<text transform="translate(198 715) scale(0.99 1)" text-anchor="middle" style="font-size: 20px;fill: #201600;font-family: ArialMT, Arial">${tableEarthSumm.innerHTML}</text>
<rect x="271.495" y="46.8129" width="123.655" height="78.904" fill="#D084FF"/>
<text transform="translate(331 96) scale(0.99 1)" text-anchor="middle" style="font-size: 20px;fill: #201600;font-family: ArialMT, Arial">${tableAnyViolet.innerHTML}</text>
<rect x="271.495" y="401.292" width="123.655" height="78.904" fill="#FFEB7E"/>
<text transform="translate(331 450) scale(0.99 1)" text-anchor="middle" style="font-size: 20px;fill: #201600;font-family: ArialMT, Arial">${tableAnyYellow.innerHTML}</text>
<rect x="271.495" y="223.464" width="123.655" height="78.904" fill="#81CBFF"/>
<text transform="translate(331 272) scale(0.99 1)" text-anchor="middle" style="font-size: 20px;fill: #201600;font-family: ArialMT, Arial">${tableAnyLightblue.innerHTML}</text>
<rect x="271.495" y="577.943" width="123.655" height="78.904" fill="#FF6868"/>
<text transform="translate(331 627) scale(0.99 1)" text-anchor="middle" style="font-size: 20px;fill: #201600;font-family: ArialMT, Arial">${tableAnyRed.innerHTML}</text>
<rect x="271.495" y="136.316" width="123.655" height="78.904" fill="#8692FF"/>
<text transform="translate(331 185) scale(0.99 1)" text-anchor="middle" style="font-size: 20px;fill: #201600;font-family: ArialMT, Arial">${tableAnyBlue.innerHTML}</text>
<rect x="271.495" y="489.617" width="123.655" height="78.904" fill="#FFBB37"/>
<text transform="translate(331 539) scale(0.99 1)" text-anchor="middle" style="font-size: 20px;fill: #201600;font-family: ArialMT, Arial">${tableAnyOrange.innerHTML}</text>
<rect x="271.495" y="312.967" width="123.655" height="77.7263" fill="#ADFF98"/>
<text transform="translate(331 362) scale(0.99 1)" text-anchor="middle" style="font-size: 20px;fill: #201600;font-family: ArialMT, Arial">${tableAnyGreen.innerHTML}</text>
<rect x="271.495" y="666.268" width="123.655" height="78.904" fill="#D9D9D9"/>
<text transform="translate(331 715) scale(0.99 1)" text-anchor="middle" style="font-size: 20px;fill: #201600;font-family: ArialMT, Arial">${tableAnySumm.innerHTML}</text>
<rect x="404.571" y="46.8129" width="256.732" height="78.904" fill="#D084FF"/>
<text transform="translate(420 70) scale(0.99 1)" style="font-size: 16px;font-weight: 600;fill: #201600;font-family: ArialMT, Arial">Сахасрара - чакра макушки,</text>
<text transform="translate(420 90) scale(0.99 1)" style="font-size: 16px;font-weight: 600;fill: #201600;font-family: ArialMT, Arial">связь с Источником,</text>
<text transform="translate(420 110) scale(0.99 1)" style="font-size: 16px;font-weight: 600;fill: #201600;font-family: ArialMT, Arial">духовный канал</text>
<rect x="404.571" y="136.316" width="256.732" height="78.904" fill="#8692FF"/>
<text transform="translate(420 159) scale(0.99 1)" style="font-size: 16px;font-weight: 600;fill: #201600;font-family: ArialMT, Arial">Аджна - чакра третьего</text>
<text transform="translate(420 179) scale(0.99 1)" style="font-size: 16px;font-weight: 600;fill: #201600;font-family: ArialMT, Arial">глаза, мысли,интуиция,</text>
<text transform="translate(420 199) scale(0.99 1)" style="font-size: 16px;font-weight: 600;fill: #201600;font-family: ArialMT, Arial">видение, область головы</text>
<rect x="404.571" y="223.464" width="256.732" height="78.904" fill="#81CBFF"/>
<text transform="translate(420 246) scale(0.99 1)" style="font-size: 16px;font-weight: 600;fill: #201600;font-family: ArialMT, Arial">Вишудха - горловая чакра,</text>
<text transform="translate(420 266) scale(0.99 1)" style="font-size: 16px;font-weight: 600;fill: #201600;font-family: ArialMT, Arial">самовыражение, органы в</text>
<text transform="translate(420 286) scale(0.99 1)" style="font-size: 16px;font-weight: 600;fill: #201600;font-family: ArialMT, Arial"> области горла и шеи</text>
<rect x="404.571" y="577.943" width="256.732" height="78.904" fill="#FF6868"/>
<text transform="translate(420 601) scale(0.99 1)" style="font-size: 16px;font-weight: 600;fill: #201600;font-family: ArialMT, Arial">Муладхара - корневой</text>
<text transform="translate(420 621) scale(0.99 1)" style="font-size: 16px;font-weight: 600;fill: #201600;font-family: ArialMT, Arial">центр, связь с родом,</text>
<text transform="translate(420 641) scale(0.99 1)" style="font-size: 16px;font-weight: 600;fill: #201600;font-family: ArialMT, Arial">зона копчика</text>
<rect x="404.571" y="312.967" width="256.732" height="77.7263" fill="#ADFF98"/>
<text transform="translate(420 336) scale(0.99 1)" style="font-size: 16px;font-weight: 600;fill: #201600;font-family: ArialMT, Arial">Анахата - сердечная чакра,</text>
<text transform="translate(420 356) scale(0.99 1)" style="font-size: 16px;font-weight: 600;fill: #201600;font-family: ArialMT, Arial">чувства, эмоции, страхи,</text>
<text transform="translate(420 376) scale(0.99 1)" style="font-size: 16px;font-weight: 600;fill: #201600;font-family: ArialMT, Arial">органы в зоне грудной клетки</text>
<rect x="404.571" y="401.292" width="256.732" height="78.904" fill="#FFEB7E"/>
<text transform="translate(420 424) scale(0.99 1)" style="font-size: 16px;font-weight: 600;fill: #201600;font-family: ArialMT, Arial">Манипура - центр силы,</text>
<text transform="translate(420 444) scale(0.99 1)" style="font-size: 16px;font-weight: 600;fill: #201600;font-family: ArialMT, Arial">живот, желудок, эмоции</text>
<rect x="404.571" y="489.617" width="256.732" height="78.904" fill="#FFBB37"/>
<text transform="translate(420 513) scale(0.99 1)" style="font-size: 16px;font-weight: 600;fill: #201600;font-family: ArialMT, Arial">Свадхистана - сексуальный</text>
<text transform="translate(420 533) scale(0.99 1)" style="font-size: 16px;font-weight: 600;fill: #201600;font-family: ArialMT, Arial">центр, желания, органы</text>
<text transform="translate(420 553) scale(0.99 1)" style="font-size: 16px;font-weight: 600;fill: #201600;font-family: ArialMT, Arial">репродуктивной системы</text>
<rect x="404.571" y="665.09" width="256.732" height="78.904" fill="#D9D9D9"/>
<text transform="translate(420 688) scale(0.99 1)" style="font-size: 16px;font-weight: 600;fill: #201600;font-family: ArialMT, Arial">Организм, все системы</text>
<text transform="translate(420 708) scale(0.99 1)" style="font-size: 16px;font-weight: 600;fill: #201600;font-family: ArialMT, Arial">организма в целом</text>
</svg>